<svg width="920" height="260" viewBox="0 0 920 260" fill="none" xmlns="http://www.w3.org/2000/svg" role="img" aria-labelledby="title desc">
  <title id="title">NABIL</title>
  <desc id="desc">Custom sharp vintage style NABIL wordmark.</desc>
  <defs>
    <linearGradient id="bg" x1="0" y1="0" x2="920" y2="260" gradientUnits="userSpaceOnUse">
      <stop stop-color="#0D1117"/>
      <stop offset="0.5" stop-color="#123766"/>
      <stop offset="1" stop-color="#58A6FF"/>
    </linearGradient>
    <linearGradient id="ink" x1="130" y1="40" x2="790" y2="220" gradientUnits="userSpaceOnUse">
      <stop stop-color="#F0F6FC"/>
      <stop offset="0.52" stop-color="#58A6FF"/>
      <stop offset="1" stop-color="#F0F6FC"/>
    </linearGradient>
    <filter id="glow" x="-20%" y="-30%" width="140%" height="160%" color-interpolation-filters="sRGB">
      <feDropShadow dx="0" dy="0" stdDeviation="7" flood-color="#58A6FF" flood-opacity="0.45"/>
      <feDropShadow dx="0" dy="12" stdDeviation="16" flood-color="#000000" flood-opacity="0.35"/>
    </filter>
  </defs>

  <path d="M0 0H920V176C824 224 710 247 589 229C470 211 392 176 277 202C169 226 75 215 0 172V0Z" fill="url(#bg)"/>
  <path d="M0 172C82 216 172 222 277 198C392 172 470 207 589 225C710 243 824 220 920 172V260H0V172Z" fill="#0D1117"/>

  <g filter="url(#glow)">
    <path d="M105 194V66H143L218 150V66H260V194H222L147 110V194H105Z" fill="url(#ink)"/>

    <path d="M286 194L365 57L444 194H398L386 170H344L332 194H286Z" fill="url(#ink)"/>
    <path d="M365 103L351 135H379L365 103Z" fill="#0D1117"/>
    <path d="M365 57L386 170H344L365 57Z" fill="#0D1117" fill-opacity="0.18"/>
    <path d="M365 57L389 120H341L365 57Z" fill="#F0F6FC" fill-opacity="0.14"/>

    <path d="M470 194V66H553C579 66 596 80 596 103C596 119 588 130 574 136C592 142 604 154 604 174C604 187 597 194 580 194H470ZM512 118H548C557 118 563 113 563 105C563 97 557 92 548 92H512V118ZM512 168H555C565 168 571 163 571 154C571 145 565 140 555 140H512V168Z" fill="url(#ink)"/>

    <path d="M633 194V66H676V194H633Z" fill="url(#ink)"/>

    <path d="M714 194V66H757V158H827V194H714Z" fill="url(#ink)"/>
  </g>

  <path d="M106 206H828" stroke="#58A6FF" stroke-width="3" stroke-linecap="round" stroke-dasharray="8 16" opacity="0.6"/>
</svg>
